<svg width="20" height="20" xmlns="http://www.w3.org/2000/svg" p-id="2056" version="1.1" class="icon" t="1645768030119">

 <g>
  <title>Layer 1</title>
  <path id="svg_1" p-id="2057" fill="#FFFFFF" d="m967.11111,530.96296a151.7037,151.7037 0 0 0 -94.81481,-140.70518a360.2963,360.2963 0 0 0 -720.5926,0a151.7037,151.7037 0 0 0 56.88889,292.40889a18.96296,18.96296 0 0 0 18.96297,-18.96297l0,-265.48148a18.96296,18.96296 0 0 0 -18.96297,-18.96296a151.7037,151.7037 0 0 0 -18.96296,0a322.37037,322.37037 0 0 1 644.74074,0a151.7037,151.7037 0 0 0 -18.96296,0a18.96296,18.96296 0 0 0 -18.96297,18.96296l0,265.48148a18.96296,18.96296 0 0 0 18.96297,18.96297a151.7037,151.7037 0 0 0 18.96296,-1.13778a265.48148,265.48148 0 0 1 -251.44889,246.51852a37.92593,37.92593 0 1 0 1.13778,37.92592a303.40741,303.40741 0 0 0 288.23704,-294.68444a151.7037,151.7037 0 0 0 94.81481,-140.32593zm-777.48148,111.88148a113.77778,113.77778 0 0 1 0,-224.33185l0,224.33185zm644.74074,0l0,-224.52148a113.77778,113.77778 0 0 1 0,224.52148z"/>
  <rect id="svg_2" height="82" width="132" y="910" x="483" fill="#FFFFFF"/>
 </g>
</svg>