<svg width="32" height="32" xmlns="http://www.w3.org/2000/svg" p-id="6751" version="1.1" class="icon" t="1645691369172">

 <g>
  <title>Layer 1</title>
  <path id="svg_1" fill="#6D6F76" p-id="6752" d="m779.288,894.577l-602.355,0c-62.28,0 -112.944,-50.668 -112.944,-112.943l0,-539.268c0,-62.28 50.663,-112.944 112.944,-112.944l602.355,0c62.276,0 112.944,50.664 112.944,112.944l0,88.519c0,10.681 -8.657,19.331 -19.333,19.331c-10.677,0 -19.333,-8.65 -19.333,-19.331l0,-88.519c0,-40.958 -33.321,-74.278 -74.279,-74.278l-602.354,0c-40.958,0 -74.277,33.321 -74.277,74.278l0,539.268c0,40.956 33.32,74.277 74.277,74.277l602.355,0c40.958,0 74.279,-33.321 74.279,-74.277l0,-104.803c0,-10.676 8.656,-19.332 19.333,-19.332c10.676,0 19.333,8.656 19.333,19.332l0,104.803c0,62.276 -50.669,112.943 -112.945,112.943zm0,0"/>
  <path id="svg_2" fill="#6D6F76" p-id="6753" d="m884.983,632.062l-270.651,0c-44.886,0 -81.401,-36.515 -81.401,-81.4l0,-91.57c0,-44.884 36.515,-81.4 81.4,-81.4l270.652,0c44.884,0 81.4,36.516 81.4,81.4l0,91.57c0,44.886 -36.515,81.4 -81.4,81.4zm-270.651,-215.704c-23.562,0 -42.735,19.167 -42.735,42.734l0,91.57c0,23.568 19.172,42.736 42.735,42.736l270.65,0c23.566,0 42.74,-19.167 42.74,-42.735l0,-91.571c0,-23.567 -19.173,-42.734 -42.74,-42.734l-270.65,0zm0,0"/>
  <ellipse stroke="null" ry="22.47609" rx="23.5" id="svg_4" cy="508.47609" cx="876.5" fill="#6D6F76"/>
  <ellipse rx="0.5" id="svg_5" cy="672" cx="718.5" fill="#6D6F76"/>
 </g>
</svg>