<svg width="32" height="32" xmlns="http://www.w3.org/2000/svg" t="1645691459045" class="icon" version="1.1" p-id="7757">
 <g>
  <title>Layer 1</title>
  <path d="m805.50213,184.60672l-586.13137,0c-41.91974,0 -75.89249,33.97274 -75.89249,75.89145l0,501.79866c0,41.92179 33.97172,75.89248 75.89249,75.89248l586.13137,0c41.92076,0 75.89145,-33.97069 75.89145,-75.89248l0,-84.29177c-0.06344,-10.99441 -8.97542,-19.89103 -19.97186,-19.89103c-10.99338,0 -19.90945,8.8956 -19.97289,19.89103l0,0.04093c0,0.04093 0,0.04093 0,0.08493c0,0 0,0 0,0.03991l0,80.13511c0,22.0676 -17.88944,39.94066 -39.93964,39.94066l-360.88736,0c-0.02148,0 -0.02148,0 -0.04298,0l-217.21413,0c-22.05123,0 -39.94373,-17.87306 -39.94373,-39.94066l0,-311.76456l224.6639,5.3295l4.02047,167.41277c0,11.61248 9.42977,21.0842 21.08318,21.0842c3.63581,0 6.8889,-1.15224 9.87286,-2.79976l0.19647,0.37043l79.73193,-27.30813l77.09486,29.49085c0.47379,0.3295 0.74292,0.82376 1.25662,1.11233c10.02841,5.97099 22.93639,2.63399 28.88794,-7.37087c2.24308,-3.82922 2.77827,-7.98998 2.50812,-12.10674c0.10438,-0.86469 0.49733,-1.60557 0.49733,-2.47128l0,-0.04094l0.01944,0l2.98056,-164.70134l205.2162,-7.67049l0,114.51717c0,0.04093 0,0.08187 0,0.08187c0,11.03533 8.93654,19.97186 19.97289,19.97186c11.03636,0 19.97187,-8.93551 19.97187,-19.97186c0,0 0,-0.04094 0,-0.08187l0,-300.89091c-0.00205,-41.91974 -33.97274,-75.89145 -75.8935,-75.89145zm-622.08115,219.7683l0.00001,-139.88288c0,-22.07272 17.8925,-39.94374 39.94373,-39.94374l188.67924,0l-5.9693,173.15408l-222.65367,6.67254l-0.00001,0zm350.03929,146.30516l-0.22923,0.37146c-6.47445,-3.78828 -14.64965,-4.28356 -21.49556,-0.12382c-0.76032,0.49426 -1.20444,1.1942 -1.89517,1.77032l-55.56859,30.8844l-0.06243,-359.03414l136.81502,0l0.06038,360.88735l-57.62442,-34.75557zm307.98958,-145.97667l-201.23667,-4.32849l-7.02252,-175.82559l168.31955,0c22.0502,0 39.93964,17.87101 39.93964,39.94373l0,140.21035z" p-id="7758" fill="#6D6F76" id="svg_1"/>
 </g>

</svg>