<svg width="32" height="32" xmlns="http://www.w3.org/2000/svg" p-id="8661" version="1.1" class="icon" t="1645691485115">

 <g>
  <title>Layer 1</title>
  <path id="svg_1" fill="#6D6F76" p-id="8662" d="m841.53018,166.77999l-475.39736,0c-49.56281,0 -89.8555,40.14431 -89.8555,89.49939l0,131.06915l-172.01572,99.06729l-6.29947,4.18942l0.71324,1.21876l0.02968,0.1187c-3.92234,4.69493 -6.06207,10.54824 -6.06207,16.58063l0,275.06368c0,16.07512 12.06376,29.1499 26.89146,29.1499c14.85739,0 26.92114,-13.10343 26.92114,-29.23892l0,-259.52478l168.74626,-97.37373c11.70765,-4.13006 19.55232,-15.12446 19.55232,-27.3366l0,-138.67538c0,-19.55232 16.01576,-35.47905 35.68678,-35.47905l466.75042,0c19.67102,0 35.68678,15.92673 35.68678,35.47905l0,512.03479c0,16.10479 13.10446,29.17957 29.23893,29.17957c16.13447,0 29.23893,-13.10445 29.23893,-29.23892l0,-516.28459c0,-49.35508 -40.29269,-89.49836 -89.82582,-89.49836z"/>
  <path id="svg_2" fill="#6D6F76" p-id="8663" d="m741.95737,656.35167c-55.5952,0 -102.9006,39.49041 -112.973,94.10426l-204.28467,-0.11871c-10.13278,-54.55552 -57.43715,-93.98555 -112.973,-93.98555c-63.6476,0 -115.43917,51.55416 -115.43917,114.93468s51.79157,114.93468 115.43917,114.93468c51.67287,0 97.19464,-34.55808 111.0717,-84.20992l208.11797,0.08903c13.90673,49.59249 59.39883,84.12089 111.04202,84.12089c63.6476,0 115.4095,-51.55417 115.4095,-114.93468s-51.76292,-114.93468 -115.41052,-114.93468zm0,169.16274c-30.07088,0 -54.52585,-24.33627 -54.52585,-54.22806c0,-29.89282 24.45497,-54.22807 54.52585,-54.22807s54.52585,24.33627 54.52585,54.22807c0,29.89179 -24.45498,54.22806 -54.52585,54.22806zm-430.23067,0c-30.07088,0 -54.52585,-24.33627 -54.52585,-54.22806c0,-29.89282 24.45497,-54.22807 54.52585,-54.22807c30.0412,0 54.49617,24.33627 54.49617,54.22807c-0.00102,29.89179 -24.456,54.22806 -54.49617,54.22806z"/>
  <path id="svg_3" fill="#6D6F76" p-id="8664" d="m375.93089,603.15175c0,15.54096 12.68797,28.19925 28.31795,28.19925l109.52651,-0.02967c15.42122,0 27.57503,-4.6059 36.16262,-13.72766c13.63862,-14.47057 12.53959,-35.00321 12.50992,-35.12191l0,-85.81446c0,-15.54095 -12.68798,-28.19925 -28.31796,-28.19925s-28.31795,12.6583 -28.31795,28.19925l0.02968,78.2072l-101.65217,0c-15.6003,0.08801 -28.2586,12.77598 -28.2586,28.28725z"/>
 </g>
</svg>