<svg width="32" height="32" xmlns="http://www.w3.org/2000/svg" p-id="9548" version="1.1" class="icon" t="1645691529277">

 <g>
  <title>Layer 1</title>
  <path id="svg_1" fill="#6D6F76" p-id="9549" d="m860.37743,133.214l-696.72519,0c-41.64344,0 -75.5466,33.90316 -75.5466,75.5466l0,510.91735c0,41.64344 33.90316,75.5466 75.5466,75.5466l252.74333,0l95.61876,95.5594l95.58907,-95.5594l252.77403,0c41.64345,0 75.51693,-33.90316 75.51693,-75.5466l0,-510.91632c0,-41.64447 -33.87348,-75.54763 -75.51693,-75.54763zm17.37165,98.76952l0,464.47356c0,22.38176 -18.21178,40.59354 -40.59354,40.59354l-257.63473,0l-67.50648,67.56583l-67.53617,-67.56583l-257.60403,0c-22.41245,0 -40.62423,-18.21178 -40.62423,-40.59354l0,-464.47356c0,-22.41246 18.21178,-40.62424 40.62423,-40.62424l650.28039,0c22.38278,0.00103 40.59456,18.21178 40.59456,40.62424z"/>
  <path stroke="null" id="svg_3" fill="#6D6F76" p-id="9551" d="m742.26664,339.57878l-438.43145,0c-14.85124,0 -26.94263,8.69144 -26.94263,19.34211c0,10.65067 12.09139,19.34212 26.94263,19.34212l438.43145,0c14.85124,0 26.9723,-8.69145 26.9723,-19.34212c0,-10.65067 -12.12106,-19.34211 -26.9723,-19.34211z"/>
  <path stroke="null" id="svg_5" fill="#6D6F76" p-id="9551" d="m745.26664,524.57878l-438.43145,0c-14.85124,0 -26.94263,8.69144 -26.94263,19.34211c0,10.65067 12.09139,19.34212 26.94263,19.34212l438.43145,0c14.85124,0 26.9723,-8.69145 26.9723,-19.34212c0,-10.65067 -12.12106,-19.34211 -26.9723,-19.34211z"/>
  <path stroke="null" id="svg_6" fill="#6D6F76" p-id="9551" d="m740.26664,425.57878l-438.43145,0c-14.85124,0 -26.94263,8.69144 -26.94263,19.34211c0,10.65067 12.09139,19.34212 26.94263,19.34212l438.43145,0c14.85124,0 26.9723,-8.69145 26.9723,-19.34212c0,-10.65067 -12.12106,-19.34211 -26.9723,-19.34211z"/>
 </g>
</svg>