<svg width="32" height="32" xmlns="http://www.w3.org/2000/svg" t="1645690664367" class="icon" version="1.1" p-id="5868">
 <g>
  <title>Layer 1</title>
  <path stroke="null" d="m511.33337,51.99954c-265.68806,0 -482.00045,210.3286 -482.00045,468.66701s216.31239,468.66701 482.00045,468.66701s482.00045,-210.3286 482.00045,-468.66701s-216.31239,-468.66701 -482.00045,-468.66701zm0,171.46354c77.59032,0 141.0733,61.72687 141.0733,137.17083s-63.48299,137.17083 -141.0733,137.17083s-141.0733,-61.72687 -141.0733,-137.17083s63.48299,-137.17083 141.0733,-137.17083zm260.98561,544.11097c-25.86344,34.29271 -129.31719,130.31254 -260.98561,130.31254s-235.12217,-96.01984 -260.98561,-130.31254c-9.40488,-11.43091 -11.75611,-22.8618 -9.40488,-34.29271c32.9171,-118.88138 144.89405,-166.8908 271.86002,-166.8908s236.00387,48.00942 268.92097,166.8908c2.35123,11.43091 0,22.8618 -9.40488,34.29271z" p-id="5869" fill="#d4237a" id="svg_1"/>
 </g>

</svg>