<svg width="32" height="32" xmlns="http://www.w3.org/2000/svg" p-id="11150" version="1.1" class="icon" t="1645691562855">

 <g>
  <title>Layer 1</title>
  <path stroke="null" id="svg_1" fill="#6D6F76" p-id="11151" d="m987.91744,336.19628c0,-1.123 -0.09128,-2.33959 -0.3651,-3.46259l0,-0.28075c-0.27383,-1.123 -0.63893,-2.24601 -1.00404,-3.36901c-0.09128,-0.28075 -0.27383,-0.65509 -0.3651,-0.93584c-0.09128,-0.28075 -0.18255,-0.46792 -0.27383,-0.74867l-116.37695,-238.54452c-6.93698,-14.2247 -20.81094,-23.02156 -36.32786,-23.02156l-625.05831,0c-15.51693,0 -29.39088,8.79686 -36.32786,23.02156l-116.37695,238.54452c-0.09128,0.28075 -0.18255,0.5615 -0.27383,0.74867c-0.09128,0.28075 -0.27383,0.5615 -0.3651,0.93584c-0.45638,1.123 -0.82148,2.24601 -1.00404,3.36901l0,0.28075c-0.18255,1.123 -0.3651,2.33959 -0.3651,3.55618l0,542.12963c0,34.43875 27.38281,62.51383 60.97239,62.51383l812.72184,0c33.58958,0 60.97239,-28.07507 60.97239,-62.51383l0,-541.7553c-0.09128,-0.18717 -0.09128,-0.28075 -0.18255,-0.46792zm-779.77119,-228.71825l625.05831,0l101.59023,208.31703l-828.23877,0l101.59023,-208.31703zm739.24463,770.84788c0,11.51078 -9.1276,20.86914 -20.35456,20.86914l-812.72184,0c-11.22695,0 -20.35456,-9.35836 -20.35456,-20.86914l0,-520.79258l853.43095,0l0,520.79258z"/>
  <path stroke="null" id="svg_2" fill="#6D6F76" p-id="11152" d="m390.79339,682.83639c4.3753,2.40198 9.71102,3.60297 15.04675,3.60297c6.82973,0 13.65946,-1.9781 18.3549,-5.72236c8.32373,-6.71141 6.82973,-16.6019 -3.30815,-22.11232l-112.90399,-61.39172l299.54773,0c35.53594,0 151.64137,5.65171 151.64137,78.4175c0,58.00069 -76.19419,83.92792 -151.64137,83.92792l-184.93631,0c-13.12589,0 -23.79734,7.06464 -23.79734,15.75415s10.67145,15.75415 23.79734,15.75415l185.04302,0c117.27929,0 199.12934,-47.47438 199.12934,-115.36556c0,-66.76084 -78.11505,-109.85514 -199.12934,-109.85514l-299.54773,0l112.90399,-61.39172c10.13788,-5.51042 11.63189,-15.40091 3.30815,-22.11232c-8.32373,-6.71141 -23.26377,-7.70046 -33.40165,-2.19004l-139.04905,75.3797l-1.70743,1.0597c-20.70262,13.7054 -20.70262,35.95901 0,49.59377l140.64977,76.65134z"/>
  <ellipse stroke="null" rx="46.66666" id="svg_3" cy="210.66677" cx="506.66665" fill="#6D6F76"/>
 </g>
</svg>